<svg width="551" height="475" viewBox="0 0 551 475" fill="none" xmlns="http://www.w3.org/2000/svg">
<path d="M1.41406 353.755H31.4141M1.41406 353.755V473.755H31.4141M1.41406 353.755L16.4141 338.755M31.4141 353.755V473.755M31.4141 353.755L31.4145 323.755M31.4141 353.755H91.5879M31.4141 353.755L16.4141 338.755M31.4141 473.755L91.5879 413.581M166.415 473.755V443.755M166.415 473.755H256.415M166.415 473.755L144.001 451.341M166.415 443.755H136.415M166.415 443.755L166.415 353.755M166.415 443.755L278.829 331.341M256.415 473.755L226.415 443.755L271.242 398.928M256.415 473.755L271.242 458.928M121.588 353.755H91.5879M121.588 353.755V473.755M121.588 353.755L91.5884 323.755M121.588 353.755L144.001 331.341M91.5879 353.755L91.5884 323.755M91.5879 353.755V413.581M121.588 473.755H91.5879V413.581M121.588 473.755L144.001 451.341M31.4145 323.755H91.5884M31.4145 323.755H1.41406M91.5884 323.755L249.959 165.385M136.415 443.755L136.415 353.755M136.415 443.755L144.001 451.341M136.415 353.755H166.415M136.415 353.755L151.415 338.755M166.415 353.755L226.415 353.755L256.415 323.755M166.415 353.755L151.415 338.755M1.41406 323.755L159.784 165.385H249.959M1.41406 323.755L16.4141 338.755M136.415 323.755H256.415M136.415 323.755L144.001 331.341M136.415 323.755L294.785 165.385M256.415 323.755L414.785 165.385M301.242 353.755L271.242 353.755M301.242 353.755H361.242M301.242 353.755V413.755M301.242 353.755L286.242 338.755M271.242 323.755H361.242M271.242 323.755L429.612 165.385M271.242 323.755L278.829 331.341M271.242 353.755L286.242 338.755M271.242 353.755V398.928M301.242 473.755H271.242V458.928M301.242 473.755V443.755H331.242M301.242 473.755L331.242 443.755M391.242 443.755V353.756M391.242 443.755L549.613 285.384V195.385M391.242 443.755H331.242M391.242 353.756L361.242 323.755M391.242 353.756L549.613 195.385M361.242 323.755L519.612 165.385M361.242 353.755V413.755H301.242M361.242 353.755L301.242 413.755M249.959 165.385H294.785M144.001 331.341L151.415 338.755M294.785 165.385H414.785M414.785 165.385H429.612M429.612 165.385H519.612M519.612 165.385L549.613 195.385M278.829 331.341L286.242 338.755M271.242 398.928V458.928" stroke="white" stroke-width="2"/>
<path d="M31.4148 309.408L31.4148 279.409H91.4153L91.4153 309.408H31.4148Z" fill="black"/>
<path d="M31.4149 159.408L31.4149 189.408H91.4154V159.408H31.4149Z" fill="black"/>
<path d="M31.4148 279.409L1.41505 279.408L1.41504 189.409L31.4149 189.408L31.4148 279.409Z" fill="black"/>
<path d="M121.415 279.408L91.4153 279.409L91.4153 219.408L91.4153 189.409H121.415L121.415 279.408Z" fill="black"/>
<path d="M1.41505 279.408L31.4148 279.409L31.4148 309.408L1.41505 279.408Z" fill="black"/>
<path d="M1.41504 189.409L31.4149 189.408L31.4149 159.408L1.41504 189.409Z" fill="black"/>
<path d="M121.415 189.408H91.4154V159.408L121.415 189.408Z" fill="black"/>
<path d="M121.415 279.408L91.4153 279.409L91.4153 309.408L121.415 279.408Z" fill="black"/>
<path d="M166.415 309.408V279.409H226.415V309.408H166.415Z" fill="black"/>
<path d="M166.415 159.408V189.408H226.415V159.408H166.415Z" fill="black"/>
<path d="M166.415 279.409L136.415 279.408V264.408V189.409L166.415 189.408L166.415 279.409Z" fill="black"/>
<path d="M256.415 279.408L226.415 279.409L226.415 219.408L226.415 189.409H256.415V279.408Z" fill="black"/>
<path d="M136.415 279.408L166.415 279.409V309.408L136.415 279.408Z" fill="black"/>
<path d="M136.415 189.409L166.415 189.408V159.408L136.415 189.409Z" fill="black"/>
<path d="M256.415 189.408H226.415V159.408L256.415 189.408Z" fill="black"/>
<path d="M256.415 279.408L226.415 279.409V309.408L256.415 279.408Z" fill="black"/>
<path d="M301.415 309.408V279.409H361.415V309.408H301.415Z" fill="black"/>
<path d="M301.415 159.408V189.408H361.415V159.408H301.415Z" fill="black"/>
<path d="M301.415 279.409L271.415 279.408V264.408L271.415 189.409L301.415 189.408L301.415 279.409Z" fill="black"/>
<path d="M391.415 279.408L361.415 279.409L361.415 219.408V189.409H391.415V279.408Z" fill="black"/>
<path d="M271.415 279.408L301.415 279.409V309.408L271.415 279.408Z" fill="black"/>
<path d="M271.415 189.409L301.415 189.408V159.408L271.415 189.409Z" fill="black"/>
<path d="M391.415 189.408H361.415V159.408L391.415 189.408Z" fill="black"/>
<path d="M391.415 279.408L361.415 279.409V309.408L391.415 279.408Z" fill="black"/>
<path d="M31.4148 279.409H91.4153L91.4153 219.408L31.4148 279.409Z" fill="black"/>
<path d="M166.415 279.409H226.415L226.415 219.408L166.415 279.409Z" fill="black"/>
<path d="M166.415 189.408L166.415 279.409L226.415 219.408L226.415 189.409L166.415 189.408Z" fill="black"/>
<path d="M301.415 279.409H361.415L361.415 219.408L301.415 279.409Z" fill="black"/>
<path d="M226.415 159.408L256.415 189.408L414.823 30.9997L384.824 1L226.415 159.408Z" fill="black"/>
<path d="M226.415 189.408H166.415L226.415 189.409H256.415V279.408L271.415 264.408L271.415 189.409L301.415 159.408L414.823 45.9998V30.9997L256.415 189.408H226.415Z" fill="black"/>
<path d="M361.415 189.408H301.415L301.415 279.409L361.415 219.408V189.409H391.415V279.408L549.823 121V30.9997L391.415 189.408H361.415Z" fill="black"/>
<path d="M361.415 159.408L391.415 189.408L549.823 30.9997L519.824 1L361.415 159.408Z" fill="black"/>
<path d="M301.415 159.408H361.415L519.824 1H459.823L414.823 45.9998L301.415 159.408Z" fill="black"/>
<path d="M91.4154 189.408H31.4149L31.4148 279.409L91.4153 219.408L91.4153 189.409H121.415L279.824 31.0002L249.824 1L91.4154 159.408L121.415 189.408H91.4154Z" fill="black"/>
<path d="M31.4149 159.408H91.4154L249.824 1H189.822L31.4149 159.408Z" fill="black"/>
<path d="M121.415 189.409L121.415 279.408L136.415 264.408V189.409L166.415 159.408L279.824 45.9993V31.0002L121.415 189.409Z" fill="black"/>
<path d="M166.415 159.408H226.415L384.824 1H324.823L279.824 45.9993L166.415 159.408Z" fill="black"/>
<path d="M31.4148 309.408L31.4148 279.409M31.4148 309.408H91.4153M31.4148 309.408L1.41505 279.408M31.4148 279.409H91.4153M31.4148 279.409L1.41505 279.408M31.4148 279.409L31.4149 189.408M31.4148 279.409L91.4153 219.408M91.4153 279.409L91.4153 309.408M91.4153 279.409L121.415 279.408M91.4153 279.409L91.4153 219.408M91.4153 309.408L121.415 279.408M31.4149 159.408L31.4149 189.408M31.4149 159.408H91.4154M31.4149 159.408L1.41504 189.409M31.4149 159.408L189.822 1H249.824M31.4149 189.408H91.4154M31.4149 189.408L1.41504 189.409M91.4154 189.408V159.408M91.4154 189.408H121.415L91.4154 159.408M91.4154 159.408L249.824 1M1.41505 279.408L1.41504 189.409M121.415 279.408L121.415 189.409M121.415 279.408L136.415 264.408M121.415 189.409H91.4153L91.4153 219.408M121.415 189.409L279.824 31.0002M166.415 309.408V279.409M166.415 309.408H226.415M166.415 309.408L136.415 279.408M166.415 279.409H226.415M166.415 279.409L136.415 279.408M166.415 279.409L166.415 189.408M166.415 279.409L226.415 219.408M226.415 279.409V309.408M226.415 279.409L256.415 279.408M226.415 279.409L226.415 219.408M226.415 309.408L256.415 279.408M166.415 159.408V189.408M166.415 159.408H226.415M166.415 159.408L136.415 189.409M166.415 159.408L279.824 45.9993M166.415 189.408H226.415M166.415 189.408L136.415 189.409M166.415 189.408L226.415 189.409M226.415 189.408V159.408M226.415 189.408H256.415M226.415 159.408L256.415 189.408M226.415 159.408L384.824 1M136.415 279.408V264.408M136.415 189.409V264.408M256.415 279.408V189.409H226.415M256.415 279.408L271.415 264.408M226.415 189.409L226.415 219.408M256.415 189.408L414.823 30.9997M301.415 309.408V279.409M301.415 309.408H361.415M301.415 309.408L271.415 279.408M301.415 279.409H361.415M301.415 279.409L271.415 279.408M301.415 279.409L301.415 189.408M301.415 279.409L361.415 219.408M361.415 279.409V309.408M361.415 279.409L391.415 279.408M361.415 279.409L361.415 219.408M361.415 309.408L391.415 279.408M301.415 159.408V189.408M301.415 159.408H361.415M301.415 159.408L271.415 189.409M301.415 159.408L414.823 45.9998M301.415 189.408H361.415M301.415 189.408L271.415 189.409M361.415 189.408V159.408M361.415 189.408H391.415M361.415 159.408L391.415 189.408M361.415 159.408L519.824 1M271.415 279.408V264.408M271.415 189.409L271.415 264.408M391.415 279.408V189.409H361.415V219.408M391.415 279.408L549.823 121V30.9997M391.415 189.408L549.823 30.9997M249.824 1L279.824 31.0002M384.824 1H324.823L279.824 45.9993M384.824 1L414.823 30.9997M519.824 1H459.823L414.823 45.9998M519.824 1L549.823 30.9997M279.824 31.0002V45.9993M414.823 30.9997V45.9998" stroke="white" stroke-width="2"/>
<rect x="1.41406" y="353.756" width="30" height="120" fill="white"/>
<rect width="30" height="120" transform="matrix(-1 0 0 1 121.588 353.756)" fill="white"/>
<rect x="31.4146" y="353.756" width="30" height="60.1738" transform="rotate(-90 31.4146 353.756)" fill="white"/>
<rect x="166.415" y="443.756" width="30" height="90" transform="rotate(180 166.415 443.756)" fill="white"/>
<path d="M31.4141 353.756V323.756H1.41406L31.4141 353.756Z" fill="white"/>
<path d="M136.415 443.756L166.415 443.756L166.415 473.756L136.415 443.756Z" fill="white"/>
<path d="M91.5879 323.756V353.756H121.588L91.5879 323.756Z" fill="white"/>
<path d="M256.415 323.756L226.415 353.756H166.415L136.415 323.756H256.415Z" fill="white"/>
<path d="M226.415 443.756L256.415 473.756H166.415V443.756H226.415Z" fill="white"/>
<path fill-rule="evenodd" clip-rule="evenodd" d="M271.242 323.756L301.242 353.756L271.242 353.756V473.756H301.242V443.756H391.242V353.757L361.242 323.756H271.242ZM361.242 353.756H301.242V413.756H361.242V353.756Z" fill="white"/>
<path d="M31.4148 309.408L31.4148 279.408H91.4153L91.4153 309.408H31.4148Z" fill="white"/>
<path d="M31.4149 159.408L31.4149 189.408L91.4154 189.408V159.408L31.4149 159.408Z" fill="white"/>
<path d="M31.4148 279.408L1.41505 279.408L1.41504 189.409L31.4149 189.408L31.4148 279.408Z" fill="white"/>
<path d="M121.415 279.408L91.4153 279.408L91.4153 189.409L121.415 189.409L121.415 279.408Z" fill="white"/>
<path d="M1.41505 279.408L31.4148 279.408L31.4148 309.408L1.41505 279.408Z" fill="white"/>
<path d="M1.41504 189.409L31.4149 189.408L31.4149 159.408L1.41504 189.409Z" fill="white"/>
<path d="M121.415 189.408L91.4154 189.408V159.408L121.415 189.408Z" fill="white"/>
<path d="M121.415 279.408L91.4153 279.408L91.4153 309.408L121.415 279.408Z" fill="white"/>
<rect x="166.415" y="309.408" width="29.9997" height="60.0005" transform="rotate(-90 166.415 309.408)" fill="white"/>
<rect width="29.9997" height="60.0005" transform="matrix(4.37114e-08 1 1 -4.37114e-08 166.415 159.408)" fill="white"/>
<rect x="166.415" y="279.408" width="29.9997" height="89.9991" transform="rotate(180 166.415 279.408)" fill="white"/>
<rect x="256.415" y="279.408" width="29.9997" height="89.9991" transform="rotate(180 256.415 279.408)" fill="white"/>
<path d="M136.415 279.408L166.415 279.408L166.415 309.408L136.415 279.408Z" fill="white"/>
<path d="M136.415 189.408L166.415 189.408L166.415 159.408L136.415 189.408Z" fill="white"/>
<path d="M256.415 189.408L226.415 189.408L226.415 159.408L256.415 189.408Z" fill="white"/>
<path d="M256.415 279.408L226.415 279.408L226.415 309.408L256.415 279.408Z" fill="white"/>
<rect x="301.415" y="309.408" width="29.9997" height="60.0005" transform="rotate(-90 301.415 309.408)" fill="white"/>
<rect width="29.9997" height="60.0005" transform="matrix(4.37114e-08 1 1 -4.37114e-08 301.415 159.408)" fill="white"/>
<rect x="301.415" y="279.408" width="29.9997" height="89.9991" transform="rotate(180 301.415 279.408)" fill="white"/>
<rect x="391.415" y="279.408" width="29.9997" height="89.9991" transform="rotate(180 391.415 279.408)" fill="white"/>
<path d="M271.415 279.408L301.415 279.408L301.415 309.408L271.415 279.408Z" fill="white"/>
<path d="M271.415 189.408L301.415 189.408L301.415 159.408L271.415 189.408Z" fill="white"/>
<path d="M391.415 189.408L361.415 189.408L361.415 159.408L391.415 189.408Z" fill="white"/>
<path d="M391.415 279.408L361.415 279.408L361.415 309.408L391.415 279.408Z" fill="white"/>
</svg>
